<svg xmlns="http://www.w3.org/2000/svg" viewBox="0 0 1024 1024">
  <path fill="#92400e"
    d="M199.24 794.734c-48.545-58.354-79.926-124.43-93.521-198.791-7.197-39.363-8.686-78.997-5.175-118.9 4.823-54.806 20.008-106.58 45.154-155.352 17.558-34.057 39.531-65.128 65.402-93.537 47.74-52.424 105.4-89.412 172.291-112.28 36.445-12.46 73.938-19.407 112.446-21.36 97.318-4.938 186.344 19.803 266.969 74.375 64.332 43.543 111.205 101.872 143.247 172.274 15.022 33.007 25.74 67.514 31.78 103.302 6.542 38.768 7.708 77.725 3.73 116.94-6.236 61.46-25.422 118.587-56.07 171.973-13.389 23.324-29.397 44.85-47.234 64.99-31.527 35.598-67.755 65.45-109.11 88.996-45.373 25.834-94.048 42.015-145.55 50.19-26.939 4.277-54.02 5.601-81.176 4.506-49.655-2.004-97.653-11.912-143.717-31.026-55.323-22.958-103.435-56.248-144.746-99.485-5.06-5.296-9.669-11.02-14.72-16.815m112.161 66.33c11.333 7.045 23.079 13.375 35.116 19.075 45.592 21.59 93.37 35.098 143.927 37.797 32.482 1.733 64.88 1.359 97.07-4.243 34.633-6.027 68.026-16.128 99.984-30.675 28.464-12.957 54.64-29.715 79.361-48.91 44.248-34.355 79.338-76.35 105.717-125.625 35.783-66.843 50.956-138.232 46.304-213.876-2.223-36.132-10.028-71.102-21.827-105.24-16.985-49.144-43.23-92.937-77.333-131.993-41.986-48.083-92.928-83.432-152.477-106.637-45.31-17.656-92.102-27.538-140.675-28.36-37.814-.64-74.957 4.243-111.528 14.332-46.473 12.82-89.211 33.23-128.151 61.422-49.278 35.677-87.498 81.091-116.323 134.557-27.684 51.35-43.698 106.206-46.912 164.335-2.776 50.214 2.812 99.704 18.142 147.917 14.928 46.949 38.088 89.452 68.837 127.719 28.205 35.1 61.925 64.193 100.768 88.404z" />
  <path fill="#1C3B6B"
    d="M214.77 277.813c17.878-22.08 36.852-42.606 58.672-60.348 38.834-31.574 82.164-54.636 129.851-69.995 31.168-10.039 62.91-15.437 95.53-16.939 23.85-1.098 47.59-.904 71.308 2.028 41.716 5.156 81.252 17.752 119.196 35.4 65.94 30.668 118.035 77.512 157.957 137.924 27.16 41.099 46.118 85.871 56.356 134.155 5.358 25.275 9.051 50.78 8.621 76.729-.136 8.175-1.428 9.495-9.716 9.516-21.165.055-42.33.1-63.494.125-6.907.009-8.121-1.335-8.164-8.143-.361-57.337-15.8-110.275-45.562-159.304-22.245-36.644-51.025-67.042-85.919-91.545-39.478-27.722-83.419-44.813-131.097-52.224-52.205-8.116-103.307-3.273-153.017 14.292-35.192 12.436-66.924 31.204-95.43 55.407-45.553 38.68-76.464 87.093-94.994 143.536-7.17 21.842-11.495 44.378-12.776 67.465-.397 7.145-.895 14.277-.923 21.435-.018 4.523-2.211 6.775-6.746 6.767-21.993-.039-43.986-.013-65.978-.14-5.842-.034-7.66-2.203-7.703-8.572-.281-42.404 7.727-83.371 21.52-123.317 14.328-41.502 36.035-78.984 62.508-114.252m587.316 29.643c-2.634 6.549-7.762 10.207-13.514 9.64-5.976-.59-11.75-6.174-12.786-12.365-1.37-8.193 3.27-16.12 11.208-19.05 17.695-6.529 39.15 7.279 36.753 31.934-1.323 13.62-10.316 21.817-21.964 27.631-2.613 1.305-5.74 1.833-7.662 4.464.875 3.13 3.2 4.909 5.98 5.511 9.62 2.084 18.761 1.537 26.92-5.049 13.9-11.22 16.06-33.884 6.697-47.55-4.23-6.178-9.14-11.907-13.14-18.22-7.805-12.32-19.155-16.135-32.992-15.096-16.531 1.243-28.157 13.668-27.295 30.232.69 13.238 8.102 22.958 19.202 29.131 8.657 4.816 17.978 4.297 26.245-2.235 6.025-4.761 7.337-14.694 2.703-20.731-2.506-3.265-4.327-2.962-6.355 1.753m-570.632-18.714c1.988-.845 3.914-1.9 5.973-2.499 11.917-3.47 22.992.812 27.215 10.415 3.59 8.161.22 16.959-7.623 19.9-7.522 2.82-15.061-1.224-17.952-9.646-.468-1.365-.334-3.193-2.328-3.408-1.978-.213-2.944 1.367-3.92 2.673-4.742 6.34-3.264 15.784 3.237 21.042 8.307 6.718 21.462 6.501 29.561-.502 4.187-3.62 7.765-7.834 10.886-12.344 10.268-14.834 4.068-35.522-12.393-42.366-6.133-2.55-12.444-1.814-18.729-1.68-7.697.164-14.32 3.026-19.32 8.975-4.175 4.968-8.25 10.04-12.068 15.284-6.845 9.403-12.374 19.25-11.69 31.607 1.053 19.001 15.913 32.38 34.567 30.514 4.533-.454 8.712-1.815 10.644-7.217-12.761-5.01-24.525-10.814-28.46-25.284-3.68-13.53.59-26.432 12.4-35.464m387.59-128.279c-5.091-6.848-11.87-11.11-20.18-12.819-7.49-1.54-15.022-2.886-22.552-4.22-6.521-1.157-12.835-.91-18.877 2.412-4.606 2.532-8.548 5.764-11.987 9.663-10.852 12.3-10.633 28.023.521 39.597 10.385 10.776 31.356 12.568 42.2 3.606 11.484-9.489 9.766-26.52-3.146-31.48-2.36-.906-4.448-1.259-6.026 1.176.147.448.193.796.361 1.07 4.133 6.743 4.146 12.537.024 17.499-3.456 4.158-10.208 5.845-15.531 3.88-5.5-2.03-9.391-8.49-9.196-15.268.252-8.787 7.14-17.609 16.378-20.683 21.458-7.143 39.335 13.308 37.921 30.39-.48 5.803-1.926 11.46-4.121 16.918-.88 2.186-2.389 4.339-1.787 7.185 6.22.831 10.854-1.812 14.778-5.917 11.319-11.841 11.934-28.515 1.22-43.009m-204.558 15.683c-1.101 7.473.015 14.608 3.392 21.357 2.9 5.798 7.66 9.541 13.604 11.85 1.404.544 2.995.767 4.29-.287 1.483-1.208.72-2.714.276-4.137-.942-3.017-1.96-6.014-2.797-9.06-4.173-15.2 1.05-30.54 13.036-38.44 14.751-9.721 35.226-2.298 39.478 14.313 1.955 7.637-1.958 15.743-8.954 18.548-6.995 2.805-13.552.53-17.183-5.717-3.58-6.16-1.5-11.48 2.328-16.469-1.72-1.858-3.443-1.462-5.276-1.021-13.79 3.315-15.344 19.255-7.45 28.409 7.985 9.26 18.382 10.402 29.675 8.139 14.401-2.886 25.22-16.18 23.8-30.686-1.445-14.76-11.901-22.702-24.09-28.81-2.85-1.428-5.91-2.157-9.195-1.604-8.03 1.353-16.102 2.474-24.107 3.954-16.343 3.022-26.846 12.38-30.827 29.66m438.369 300.642c18.127 5.964 34.349-2.05 41.722-20.506 1.358-3.399 1.663-6.795.792-10.263-2.55-10.16-5.29-20.272-7.789-30.444-3.381-13.767-12.852-20.992-25.982-23.918-14.77-3.291-30.03 4.96-34.384 18.15-.938 2.84-1.602 5.692.534 8.83 1.567-.893 3.011-1.644 4.384-2.508 5.57-3.509 11.628-5.751 18.082-6.916 11.556-2.084 25.213 4.277 31.252 14.495 5.788 9.794 4.765 21.735-2.636 30.778-6.324 7.726-16.655 9.675-24.636 4.647-5.823-3.667-7.71-11.36-4.44-18.097 3.084-6.357 8.934-8.543 15.875-5.98 1.488.549 2.919 1.702 4.646.795 1.131-6.498-3.175-12.284-10.006-13.535-9.974-1.827-19.523 3.4-23.925 13.097-6.995 15.407-.27 32.914 16.51 41.375m-675.007-83.554c-12.735 2.988-20.666 10.691-23.584 23.585-1.76 7.778-3.978 15.452-5.835 23.21-1 4.184-2.556 8.344-2.07 12.734 1.714 15.444 21.173 29.42 36.418 26.402 19.702-3.902 28.26-20.366 24.022-39.612-2.155-9.79-8.989-15.338-18.732-17.05-9.251-1.627-18.26 6.237-16.852 14.458 1.647.544 2.827-.635 4.172-1.17 6.5-2.581 13.217-.566 16.634 5.01 3.673 5.998 2.631 12.884-2.666 17.622-6.338 5.669-16.532 5.371-23.292-.68-8.106-7.258-11.224-18.895-7.675-28.644 3.661-10.056 15.471-18.826 25.858-19.395 9.318-.51 17.71 2.325 25.763 6.638 1.408.754 2.875 2.067 4.583.785 1.397-1.048 1.189-2.718.96-4.165a16.651 16.651 0 00-1.306-4.252c-5.59-12.24-20.334-18.69-36.398-15.476M725.29 248.651l-4.116 5.426c1.614 1.523 3.156.858 4.426.332 12.72-5.27 25.267-17.634 23.17-35.27-.333-2.801-1.358-4.991-3.736-6.696-11.507-8.253-23.29-16.086-35.666-22.964-14.276-7.934-35.916-.758-43.179 13.94-10.904 22.068 8.854 43.331 28 43.458 11.77.077 21.1-5.865 23.928-15.163 2.434-8.004-3.059-17.087-10.696-17.267.062.983.093 1.948.188 2.905.604 6.103-2.067 11.832-7.06 14.299-5.34 2.638-10.66 2.452-15.516-1.269-4.595-3.52-6.338-9.868-4.518-15.779 5.006-16.256 27.175-21.56 40.789-9.865 9.53 8.187 16.795 25.56 3.986 43.913m-396.064-32.89c-8.36 7.972-7.953 19.18.985 26.387 2.619 2.111 5.542 3.65 8.805 4.568 11.395 3.207 25.653-2.431 33.224-13.179 7.461-10.593 7.386-23.033-.202-33.54-8.344-11.55-28.147-17.473-38.742-11.129-11.852 7.097-23.413 14.68-35.066 22.106-3.287 2.094-4.941 5.062-5.205 9.113-.973 14.962 8.332 29.726 22.362 35.02 1.499.565 3.07 1.356 4.646-.017-.111-2.138-1.948-3.045-3.06-4.395-9.785-11.867-10.674-27.498-1.956-39.755 6.658-9.36 16.164-12.659 27.17-11.091 8.02 1.142 14.207 5.495 17.45 13.29 2.769 6.657 1.608 12.881-3.21 17.435-3.971 3.756-10.113 4.913-14.85 2.52-6.094-3.08-8.374-8.253-7.547-14.897.477-3.838-1.018-4.603-4.804-2.436M176.42 378.62c4.969-1.593 10.087-2.276 15.263-1.9 3.59.26 5.46-.726 4.963-4.625-.38-2.982.735-5.116 3.576-6.409 1.315-.599 2.698-1.37 3.233-3.629-6.864-6.624-11.421-15.07-14.551-24.759-9.453 13.685-14.79 28.943-22.068 44.036 4.079-.091 6.272-1.84 9.584-2.713m349.63-217.882c3.284-7.553 9.318-13.1 15.627-19.988-8.01-1.248-14.64-2.387-21.15.631-2.496 1.158-4.551 1.085-7.077-.083-4.328-2.001-8.873-1.28-13.287-.604-.073 1.881.904 2.363 1.643 2.993 5.812 4.951 10.327 10.854 12.997 18.045.955 2.57 2.123 4.063 5.324 4.101 3.44.042 4.813-1.577 5.923-5.095m-122.3-.81c-5.143-1.182-8.976 1.66-13.221 3.675 5.535 9.214 5.553 9.358 1.783 12.487-1.79-.494-.84-3.378-3.264-3.517-2.085.396-2.968 2.137-3.656 4.083-.517 1.463-.084 3.736-2.423 3.8-2.363.064-3.89-1.465-5.108-3.447-1.525-2.482-.463-5.552-1.923-8.425-5.265 1.8-10.1 3.804-15.62 7.493 10.752 3.912 19.033 8.975 25.963 16.473 2.803-3.236 5.333-6.091 9.874-5.155 1.515.312 2.429-1.231 2.406-2.634-.14-8.506 2.71-16.33 5.189-24.834M857.5 342.036c-1.483-2.414-2.297-5.352-5.4-7.229-2.438 10.733-6.912 19.971-14.047 27.783 2.486 2.818 7.223 2.963 6.414 7.523-.681 3.838 1.457 5.228 4.708 5.4 6.64.35 13.265.586 19.704 2.588 2.297.715 4.432-.248 3.604-2.95-1.025-3.342-1.583-7.172-5.252-9.508-3.705 4.021-7.874 6.08-13.292 3.49-3.4-1.625-4.249-4.461-4.255-7.784-.014-7.562 6.296-8.303 11.489-10.1-.384-3.372-2.192-5.835-3.673-9.213M642.144 184.828c.019 1.93.897 2.655 2.861 2.297 2.503-.457 4.715.442 6.21 2.393 2.236 2.92 3.966 1.856 6.075-.157 4.707-4.492 9.68-8.623 15.964-10.866 2.422-.864 5.12-1.174 7.556-3.285-5.305-2.595-10.485-4.531-15.93-6.168.072 7.56-2.415 11.709-7.918 12.956-4.056.92-7.695-.067-9.952-3.865-1.513-2.545-1.55-5.376-.775-8.227.789-2.898 3.504-4.12 6.077-6.213-5.749-1.967-10.45-4.758-16.557-5.144 3.65 8.52 6.44 16.66 6.389 26.279M153.148 492.854c1.334 3.29 2.62 6.792.23 9.926-2.476 3.248-5.638 1.572-8.617.349-1.252-.515-3.022-.678-3.315 1.032-.725 4.235-2.047 8.541-.145 13.535 6.968-6.751 14.698-11.016 24.458-12.547-3.438-4.414-.15-7.694.6-11.581-10.083-3.494-16.805-10.872-23.124-20.41-.474 2.884-.794 4.16-.878 5.45-.75 11.62-.738 11.62 10.791 14.246m626.81-235.89l13.93-.641c-2.514-4.716-6.034-7.215-9.753-10.065-2.597 5.649-7.013 7.733-12.322 7.387-3.102-.203-5.53-2.225-6.13-5.692-1.062-6.147 2.606-9.517 7.707-12.454-3.38-3.195-6.42-6.317-10.904-8.616-.429 7.433-1.287 14.32-3.81 20.852-1.37 3.545-3.498 7.102 1.79 9.413.582.255.95 1.377 1.109 2.16.833 4.1 3.119 3.61 5.818 1.93 3.597-2.24 7.552-3.45 12.565-4.273m-519.767-5.558c-1.325-1.249-.798-3.585-2.817-4.71-3.552 2.64-7.043 5.306-9.44 9.951 10.468.887 20.656.857 29.535 6.546 2.02-2.89 2.626-5.979 5.742-6.889 2.642-.77 2.706-2.433 1.568-4.624-2.324-4.476-3.668-9.262-4.217-14.276-.367-3.36-.776-6.716-1.222-10.552-4.093 3-7.574 5.685-10.54 9.431 1.213.645 2.085 1.083 2.933 1.564 4.193 2.377 6.213 7.294 4.704 11.422-1.484 4.06-4.969 5.741-10.22 4.98-2.035-.294-3.78-1.22-6.026-2.843m619.142 240.37c-2.528.954-3.511 2.328-1.58 4.83.907 1.173 1.696 2.646.898 4.172-1.716 3.282-.093 4.504 2.871 5.2 5.455 1.28 10.128 4.061 14.433 7.588 1.446 1.184 2.811 2.976 5.187 2.078 1.088-2.277.549-4.638.527-6.923-.054-5.675-1.12-6.453-6.571-4.654-3.002.99-5.795.973-7.51-1.858-1.865-3.08-2.682-6.52-.202-9.816 2.26-3.005 5.051-4.765 9.028-3.688 1.207.328 2.443 1.286 4-.049.264-4.16.787-8.533-1.93-13.184-5.367 6.713-10.896 12.617-19.151 16.304m-692.804 13.004c5.241 1.707 8.431 6.816 14.593 9.192.698-10.194.862-19.622 2.47-30-5.418 3.872-9.407 7.41-14.442 9.337-5.463 2.092-6.455 5.652-2.62 11.47m659.173-15.83c-1.828-.97-3.155-3.018-6.564-2.594 1.588 8.928.243 18.057 2.609 27.64 4.413-3.076 7.338-6.39 11.332-8.157 2.859-1.265 4.964-2.659 4.63-6.606-.317-3.755-1.786-5.615-5.238-6.699-2.176-.682-4.116-2.116-6.77-3.584M510.934 194.327c-1.064 2.106-3.646 3.295-4.004 6.408 9.447.063 18.55-.065 27.832.377-4.678-4.843-7.97-10.162-10.19-16.162-.745-2.012-2.331-2.55-4.348-2.623-2.333-.085-3.735.867-4.55 3.02-1.118 2.956-2.398 5.844-4.74 8.98m-276.25 183.977c.612-1.47 2.049-2.713 1.125-5.035-5.43.528-11.042.732-16.492 1.779-2.066.397-4.31 3.234-3.052 5.452 3.067 5.407 6.128 10.803 7.908 16.907l1.436-.205c2.913-6.082 5.826-12.165 9.075-18.898M732.54 280.96c3.449 3.093 6.858 6.231 10.36 9.263 2.505 2.17 4.336 1.6 4.668-1.75.363-3.662 1.574-7.09 2.381-10.628.633-2.774-2.652-7.661-5.163-7.091-5.508 1.25-10.853 3.217-16.193 4.87.427 2.742 2.12 3.657 3.947 5.336m-440.045 1.262c1.328 3.488.602 7.497 2.744 11.512l17.57-16.677c-1.196-2.49-2.907-2.449-4.527-2.797-2.904-.624-5.935-1.094-8.584-2.331-2.446-1.143-3.816-.405-5.737.972-3.441 2.467-2.11 5.497-1.466 9.321m117.07-68.16c-2.434-1.707-5.004-3.253-7.268-5.162-2.995-2.527-5.693-1.573-6.844 1.313-2.293 5.746-3.798 11.806-5.936 18.73 9.057-4.649 17.913-7.347 27.234-11.085a987.964 987.964 0 00-7.186-3.796m410.17 160.479c-4.668.152-9.144-2.15-14.874-1.57l11.753 24.277c3.35-5.371 5.199-10.277 7.43-15 2.553-5.408 2.475-5.784-4.309-7.707M649.373 223.869c-1.5-4.05-2.82-8.14-3.445-12.442-.443-3.05-2.98-4.959-5.257-3.588-5.228 3.147-10.343 6.571-16.83 9.835 8.65 3.477 15.844 6.395 23.062 9.252 2.279.902 3.127-.059 2.47-3.057z" />
  <path fill="#92400e"
    d="M747.993 320.024c36.036 41.685 60.288 88.824 70.702 142.78 4.112 21.306 5.963 42.825 5.503 64.534-.133 6.285.071 6.434 6.34 6.442 23.827.03 47.654.054 71.481.097 7.941.015 9.491 1.343 9.243 9.267-.887 28.252-5.994 55.851-13.355 83.069-9.592 35.463-24.398 68.705-43.712 99.87-34.144 55.091-79.236 99.064-135 132.216-31.331 18.627-64.872 31.578-99.911 41.089-30.892 8.385-62.344 11.817-94.301 12.115-33.947.317-67.464-2.812-100.474-10.725-42.846-10.271-82.517-27.869-119.317-52.085C241.533 806.8 194.65 750.73 163.335 681.43c-17.939-39.699-27.899-81.435-31.747-124.714-.528-5.947-.694-11.933-.823-17.906-.117-5.443 1.692-7.152 7.146-7.158a112960 112960 0 0173.473-.05c6.68-.003 7.557-1.08 7.046-7.511-.966-12.165.146-24.3 1.418-36.364a294.481 294.481 0 019.368-48.92c10.316-36.684 27.332-69.965 49.976-100.53 33.282-44.92 76.122-77.465 127.648-98.641 24.134-9.918 49.389-15.75 75.283-19.078 15.896-2.044 31.805-3.412 47.793-2.595 57.32 2.927 110.766 18.03 158.807 50.456 21.823 14.73 41.45 31.821 59.27 51.604M170.51 671.054c17.4 41.86 42.14 78.906 73.01 112.013 32.234 34.567 70.124 61.385 112.443 81.987 49.506 24.101 102.237 34.51 157.024 35.622 37.529.762 74.362-3.842 110.606-13.654 47.957-12.984 91.078-35.459 130.336-65.645 44.853-34.488 79.97-77.118 105.803-127.364 22.414-43.595 35.636-89.92 40.107-138.74.832-9.083.84-8.915-8.412-9.055-23.476-.356-46.968.522-70.428-.855-5.859-.344-8.248-3.017-8.292-8.922-.029-3.832.035-7.668.161-11.498.88-26.637-1.74-52.951-8.641-78.667-10.985-40.936-29.405-78.299-56.994-110.615-64.997-76.136-147.647-112.09-247.723-106.349-37.248 2.138-72.921 11.786-106.48 28.344-51.86 25.588-92.537 63.386-122.718 112.714-17.138 28.01-28.955 58.076-35.672 90.089-4.905 23.383-6.427 47.141-5.521 71.05.355 9.381-1.95 11.72-11.124 11.745-23.497.065-46.994.013-70.491-.031-5.858-.011-6.036.356-5.68 6.224.486 7.98 1.383 15.899 2.297 23.838 3.876 33.67 13.239 65.826 26.389 97.769z" />
  <style>
    @keyframes rotate {
      from {
        transform: rotate(0deg);
      }

      to {
        transform: rotate(360deg);
      }
    }

    .rotating-path {
      transform-box: fill-box;
      transform-origin: center;
      animation: rotate 30s linear alternate-reverse infinite;
    }
  </style>
  <path class="rotating-path" fill="#92400e"
    d="M469.865 312.91c15.842-21.676 31.477-43.059 47.159-64.408 3.022-4.115 4.243-4.119 7.388.219 12.613 17.4 25.13 34.87 37.704 52.298 3.996 5.538 8.153 10.963 12.047 16.57 1.734 2.498 3.644 3.014 6.401 2.02 3.73-1.345 7.754-4.208 11.346-2.895 3.715 1.357 4.049 6.535 5.935 9.994 1.12 2.053 2.252 2.704 4.736 2.227 27.76-5.335 55.55-10.51 83.33-15.731.654-.123 1.297-.308 1.952-.427 7.337-1.34 8.366-.487 7.111 6.964-4.692 27.873-8.575 55.888-14.416 83.56-.86 4.079.047 6.865 4.286 8.088.796.23 1.555.596 2.322.918 6.543 2.744 6.725 3.177 4.24 9.988-2.727 7.477-2.788 7.569 3.783 11.943 24.128 16.062 48.3 32.057 72.453 48.08 1.366.907 2.964 1.57 3.63 3.32-.413 2.213-2.303 3.162-3.883 4.293-23.021 16.491-46.046 32.975-69.116 49.398-6.791 4.835-6.965 4.78-4.424 12.512 1.269 3.86.465 6.076-3.46 7.817-9.33 4.14-8.997 4.277-7.272 14.535 4.69 27.88 9.167 55.796 13.674 83.707.685 4.237-.603 5.18-6.305 4.258-12.47-2.018-24.917-4.172-37.36-6.345-16.216-2.832-32.444-5.611-48.61-8.709-3.5-.67-5.405.157-6.568 3.312-.057.155-.156.294-.232.442-5.466 10.609-4.947 9.006-14.177 5.432-3.369-1.305-5.29-.873-7.436 2.275-17.174 25.182-34.538 50.236-51.863 75.315-2.714 3.928-4.082 3.984-7.02-.13-17.037-23.86-34.046-47.743-50.95-71.698-4.49-6.36-4.306-6.49-11.502-3.997-6.993 2.422-6.996 2.424-10.008-4.288-.682-1.52-1.338-3.05-1.994-4.58-1.013-2.363-2.61-2.982-5.209-2.468-27.089 5.365-54.2 10.614-81.305 15.898-11.191 2.182-11.264 2.171-9.623-8.851 4.135-27.785 7.5-55.69 12.878-83.28.705-3.617-.016-6.23-3.762-7.496-.785-.265-1.524-.671-2.276-1.028-6.483-3.08-6.483-3.082-4.438-9.643 2.451-7.864 2.438-7.845-4.416-12.636a79761.973 79761.973 0 01-66.333-46.425c-2.291-1.605-4.73-3.07-6.26-5.194.097-2.18 1.58-2.827 2.77-3.661 24.82-17.411 49.628-34.838 74.515-52.154 2.376-1.653 3.758-3.142 2.321-6.05-.438-.886-.638-1.89-.944-2.841-2.238-6.958-2.238-6.958 4.55-9.977 7.166-3.187 7.041-3.167 5.799-10.716-4.59-27.888-9.116-55.786-13.6-83.691-.902-5.607-.358-6.105 5.296-5.365 28.212 3.693 56.063 9.54 84.09 14.33 5.492.938 7.827-.54 9.64-5.36 2.409-6.402 2.815-6.382 9.154-4.24 8.81 2.979 8.81 2.979 14.252-5.43M576.69 588.487c.273-21.057-4.754-40.974-13.395-60.342 20.379 8.36 40.53 15.464 62.96 13.084-2.698-7.65-5.774-9.832-12.448-10.102-6.644-.27-13.248-1.019-19.761-2.515-21.268-4.884-39.386-15.896-56.533-28.843-1.583-1.195-2.987-3.242-6.013-1.803 2.944 5.896 6.92 10.796 10.562 15.9 9.963 13.96 17.717 28.888 21.354 45.845 4.558 21.253 2.896 42.385-.652 63.499-1.756 10.45-3.284 20.801-9.344 30.205-11.178 17.348-22.043 34.945-30.678 53.777-.468 1.02-.786 2.27-2.41 2.34-2.17-1.132-2.86-3.456-3.854-5.515-9-18.653-20.462-35.874-31.08-53.586-1.35-2.251-2.68-3.404-5.61-2.17-6.054 2.548-6.505 3.396-2.716 8.895 11.721 17.013 23.327 34.1 34.049 51.77 2.911 4.797 5.93 9.529 9.15 14.693.961-1.16 1.573-1.714 1.963-2.395 13.587-23.74 28.907-46.369 44.154-69.046.824-1.226 1.633-2.612 1.916-4.03 3.861-19.408 8.312-38.736 8.386-59.66m-104.444-45.794c-5.372 15.912-9.911 31.94-7.366 49.265 7.393-3.044 9.72-6.392 9.882-13.092.25-10.393 2.452-20.43 5.754-30.26 5.705-16.98 15.556-31.567 26.198-45.717 1.09-1.45 2.96-2.759 2.173-5.104-2.752-.638-4.183 1.342-5.882 2.479-13.006 8.704-25.783 17.823-40.655 23.23-26.476 9.627-53.574 8.806-80.796 4.346-9.47-1.551-18.876-3.053-27.492-8.263-16.801-10.16-33.354-20.802-51.098-29.34-1.175-.565-2.49-1.055-2.881-2.59.306-1.93 1.98-2.513 3.401-3.29 8.905-4.873 17.818-9.731 26.744-14.563 9.53-5.159 18.526-11.184 27.709-16.911 3.989-2.488 2.38-5.12.86-8.031-1.779-3.41-3.897-2.113-6.123-.623-1.105.741-2.287 1.369-3.391 2.112-17.82 11.993-35.844 23.662-54.267 34.72-3.16 1.896-7.068 2.98-9.162 6.408.906 2.489 3.037 3.228 4.868 4.312 15.617 9.249 31.04 18.801 46.32 28.607 9.406 6.037 18.022 13.438 29.946 15.192 14.808 2.179 29.498 5.236 44.477 6.04 20.85 1.118 40.654-3.449 59.736-11.63 2.022-.867 4.02-2.337 6.58-1.556 0 .715.152 1.262-.025 1.666-1.73 3.964-3.517 7.905-5.51 12.593m185.981-107.326c-32.537-5.316-64.534-5.013-95.478 9.603 8.637-20.134 15.613-40.108 13.62-63.263-4.933 3.809-9.904 5.684-10.099 12.028-.36 11.751-3.064 23.065-7.2 34.016-5.284 13.994-13.535 26.307-22.15 38.407-1.728 2.427-4.194 4.608-4.24 8.099 2.193.652 3.447-.6 4.771-1.495a666.604 666.604 0 0010.7-7.375c17.485-12.331 36.624-20.064 58.123-22 17.913-1.612 35.588-.203 53.156 2.988 9.443 1.715 18.842 3.353 27.49 8.422 17.23 10.1 34.353 20.45 52.507 28.896 1.457.679 3.121 1.306 3.378 3.485-.855 1.485-2.525 1.923-3.968 2.655-18.303 9.278-35.56 20.308-52.797 31.382-4.146 2.664-2.613 5.47-.89 8.485 1.959 3.426 4.116 1.59 6.205.155 19.638-13.49 39.346-26.872 59.727-39.232 1.897-1.15 4.137-2.115 4.965-4.44-1.543-2.264-3.757-3.17-5.749-4.31-17.504-10.008-34.833-20.314-51.632-31.465-8.78-5.828-17.423-11.642-28.328-12.743-3.789-.383-7.511-1.429-12.11-2.298M471.821 612.315c23.032-16.564 39.765-37.88 48.754-65.403 8.211 20.294 17.026 39.522 35.673 53.794.587-5.652 2.781-9.873-.733-13.712-17.084-18.66-25.832-41.197-30.99-65.525-1.17-5.52-1.098-11.42-3.695-16.964-2.59 1.885-2.336 4.15-2.585 6.228-2.079 17.307-5.773 34.347-14.37 49.548-18.776 33.206-46.431 56.07-83.02 67.564-16.662 5.234-33.784 8.923-50.311 14.649-1.558.54-3.23 1.396-4.726.113-1.836-1.573-.506-3.403-.041-5.083 2.17-7.852 4.584-15.643 6.552-23.544 2.851-11.452 5.452-22.967 8.043-34.481 1.23-5.466-.06-7.205-5.708-8.229-5.225-.947-3.914 3.332-4.406 5.841a7651.075 7651.075 0 00-11.357 59.235c-1.051 5.602-3.141 11.044-3.257 16.6 1.65.937 2.729.443 3.856.144 18.486-4.906 37.06-9.437 55.713-13.674 8.074-1.834 16.629-2.241 24.05-6.271 11.125-6.041 21.789-12.868 32.558-20.83m25.708-210.262c13.447 20.232 17.774 43.631 22.245 67.21 3.232-1.605 2.722-3.785 2.955-5.68 2.317-18.83 7.139-36.915 16.477-53.558 10.281-18.323 25.825-31.633 42.623-43.577 10.304-7.326 20.753-14.416 33.346-17.659 18.846-4.853 37.784-9.429 56.115-16.097 1.37-.499 2.861-1.26 4.124.263 1.013 1.223.472 2.482.07 3.772-1.536 4.924-2.989 9.874-4.532 14.795-4.632 14.774-7.705 29.94-11.431 44.944-1.166 4.696 1.812 5.705 5.231 6.713 3.643 1.074 4.256-1.428 4.954-3.922.314-1.122.664-2.243.86-3.387 3.923-22.952 8.604-45.744 14.302-68.324 1.253-4.967.496-5.642-4.61-4.265-18.151 4.894-36.448 9.163-54.808 13.212-10.813 2.385-22.078 3.555-31.642 10.085-6.189 4.225-12.624 8.086-18.855 12.25-24.136 16.13-43.458 36.19-52.463 64.618-.345 1.089-.527 2.32-2.741 2.996-6.025-19.944-15.74-37.692-32.996-51.812-1.75 6.208-2.547 10.61 1.307 14.902 3.325 3.702 6.078 7.917 9.47 12.521m85.387 85.095c-.003-3.31 3.028-2.646 4.704-3.2 15.95-5.27 29.865-13.851 42.041-25.326 1.61-1.518 3.825-2.778 3.674-5.9-3.945-1.878-7.823-2.4-11.64.352-3.242 2.337-6.365 4.839-9.617 7.16-20.07 14.32-42.957 20.813-67.011 24.018-1.883.25-3.904.03-4.877 2.202.46.42.672.781.947.839 2.44.51 4.88 1.048 7.343 1.429 23.386 3.612 45.294 11.038 64.344 25.49 19.882 15.082 34.015 35.03 46.68 56.148.834 1.392 1.264 3.081 1.633 4.69 4.863 21.24 9.424 42.556 16.043 63.353.428 1.343 1.489 2.885.046 4.182-1.331 1.195-2.844.428-4.235-.09-8.122-3.026-16.467-5.32-24.809-7.633-12.962-3.595-25.948-7.086-39.392-9.966-1.424 2.998-3.002 5.671-3.412 9.691 27.51 4.865 54.323 12.137 81.976 18.443-.33-2.377-.389-3.698-.705-4.954-4.885-19.37-8.84-38.946-12.398-58.586-2.453-13.541-5.982-26.221-14.34-37.729-10.6-14.594-20.813-29.315-34.754-41.054-12.426-10.464-26.613-17.59-42.241-23.559m-165.84-38.72c-5.83-5.967-11.481-12.124-16.234-18.968-7.474-10.762-15.713-21.067-18.745-34.383-4.359-19.146-8.925-38.256-14.992-56.963-.534-1.647-1.824-3.55-.096-5.113 1.67-1.508 3.434-.175 5.13.399 18.147 6.136 36.642 11.02 55.327 15.186 7.8 1.74 9.084.616 9.703-7.842-1.503-.43-3.049-1.024-4.65-1.306-23.11-4.078-45.884-9.685-68.714-15.036-6.84-1.603-7.689-.86-5.941 6.067 4.597 18.222 9.019 36.518 11.87 55.072 2.222 14.468 6.842 27.616 15.413 39.432 2.835 3.908 5.404 8.007 8.224 11.926 15.853 22.03 35.354 39.334 61.838 47.552 1.364.423 3.01.557 3.442 3.065-19.991 6.994-39.062 15.76-53.06 32.837.98.81 1.2 1.102 1.486 1.204.465.166.973.21 1.464.3 6.488 1.198 11.071-1.776 16.105-5.72 20.459-16.028 44.324-23.925 69.81-27.467 2.012-.28 4.277-.037 6.584-3.312-32.186-3.41-60.693-13.616-83.964-36.93m59.806-75.629c.603-4.786.953-9.62 1.86-14.347 2.243-11.688 2.76-23.837 9.72-34.26 10.46-15.66 19.988-31.898 29.127-48.362.723-1.302 1.294-2.735 3.013-3.297 1.718.538 2.375 2.11 3.103 3.583 8.507 17.203 19.188 33.152 28.633 49.813 2.087 3.68 4.357 4.743 7.967 2.396 1.229-.799 2.849-.988 4.113-2.971-14.56-21.637-29.174-43.564-43.119-65.713-2.735.951-3.375 2.801-4.368 4.287-11.192 16.758-22.04 33.758-33.65 50.221-6.485 9.197-11.11 18.826-12.577 29.972-.563 4.285-1.165 8.57-1.932 12.822-5.193 28.812-4.05 56.974 8.388 84.026.514 1.118 1.487 2.367-.185 4.012-19.29-8.024-39.141-14.58-61.001-12.532 2.912 7.91 5.808 10.147 12.79 10.205 9.23.078 18.16 1.795 26.967 4.48 17.494 5.335 32.649 14.88 47.1 25.757 1.72 1.294 3.3 3.343 6.225 2.49-.668-4.476-3.694-7.279-6.013-10.406-11.844-15.977-20.795-33.297-24.936-52.888-2.684-12.703-1.31-25.551-1.225-39.288M637.52 578.273c-6.073 1.296-12.239 1.267-18.38 1.007-3.745-.159-5.24 1.202-4.708 4.92 1.147 8.026.055 15.92-1.802 23.703-.916 3.84-.052 5.714 4.062 6.7 9.522 2.283 18.9 5.159 28.384 7.609 5.053 1.305 9.945 3.454 15.414 3.782.64-2.653-.07-4.69-.579-6.763-2.654-10.804-5.32-21.606-7.894-32.43-2.606-10.954-2.562-10.964-14.497-8.528m-93.25 67.569c3.363-3.548 2.182-5.854-1.8-7.937-5.644-2.953-10.444-7.084-14.942-11.593-1.958-1.963-3.48-4.474-6.223-5.639-.503.252-1.02.382-1.364.702-7.438 6.924-14.877 13.843-23.789 18.918-2.76 1.571-1.104 3.335-.131 5.015 6.841 11.813 13.696 23.618 20.547 35.425 2.87 4.948 4.073 4.967 6.957.1 6.788-11.459 13.574-22.919 20.744-34.991M391.336 581.87c-2.853 15.079-7.097 29.837-11.08 45.093 1.572-.127 2.414-.062 3.175-.277 14.376-4.074 28.678-8.43 43.29-11.615 4.014-.874 3.14-3.53 2.576-6.17-1.774-8.31-3.306-16.642-1.859-25.185.618-3.645-1.573-4.457-4.405-4.167-8.872.91-17.58-.465-26.258-1.866-3.18-.514-4.768.336-5.439 4.187m324.426-92.549c3.02-2.15 1.868-3.65-.696-5.118-12.426-7.109-24.869-14.189-37.201-21.457-3.072-1.811-4.744-1.085-6.373 1.776-3.901 6.852-8.992 12.777-14.657 18.233-.923.889-2.084 1.747-1.763 3.978 8.452 7.071 15.51 16.06 21.938 25.823a98483.786 98483.786 0 0038.752-23.235m-332.438 2.542c3.573-2.496 3.434-4.762.366-7.945-5.184-5.377-10.154-11.081-13.65-17.728-2.269-4.31-4.449-4.757-8.514-2.254-11.315 6.967-22.851 13.574-34.292 20.339-1.4.828-2.992 1.528-3.216 3.692.37.398.722 1.029 1.257 1.316 13.031 7 25.76 14.52 38.342 22.289 2.691 1.661 3.87.148 5.074-1.89 3.834-6.488 8.618-12.208 14.633-17.819m230.631-130.53c-2.495.772-2.602 2.43-2.14 4.721 1.577 7.834 2.784 15.748 2.31 23.764-.248 4.179 1.637 5.167 5.344 4.938 7.16-.442 14.294.077 21.356 1.33 6.526 1.158 6.914 1.066 8.503-5.471 2.983-12.275 5.665-24.622 9.602-36.65 1.389-4.242-.243-5.715-5.01-4.353-13.105 3.744-26.163 7.65-39.965 11.72m-215.414-8.195c-5.137-1.25-10-3.925-16.001-3.609 3.856 15.468 7.535 30.243 11.227 45.014.663 2.657 2.226 3.226 4.865 2.506 7.923-2.162 16.051-2.82 24.216-2.214 4.156.309 5.24-1.442 5.018-5.202-.45-7.675.31-15.318 2.143-22.742 1.046-4.232-.458-5.626-4.202-6.551-8.864-2.191-17.657-4.668-27.266-7.202m112.238-5.427c1.986 2.018 4.159 3.888 5.914 6.09 2.36 2.958 4.339 2.893 6.854.177 5.122-5.532 11.07-10.134 17.468-14.063 3.73-2.29 3.965-4.537 1.74-8.126-6.053-9.764-11.774-19.734-17.715-29.57-1.502-2.489-2.061-5.612-4.543-7.45-.512.253-.936.318-1.07.55-7.347 12.67-14.257 25.602-22.734 37.59-1.716 2.427-.439 3.949 1.686 5.242 4.28 2.603 8.335 5.515 12.4 9.56m91.96 243.512c.403-11.673.411-23.313-3.055-34.643-.628-2.05-.951-4.427-3.266-5.318-4.43-1.706-8.872-3.453-13.702-4.122-.71 2.791.531 4.897 1.15 7.068 4.416 15.502 6.489 31.153 4.646 47.335-1.382 12.132-4.147 23.91-7.449 35.588-1.09 3.858-.82 6.257 3.416 7.707 4.418 1.512 4.22-2.16 5.112-4.234 6.674-15.515 11.31-31.603 13.149-49.381m-154.538-41.373c-26.858 7.307-53.334 5.034-79.533-3.291-3.07-.975-5.181-1.348-6.557 2.521-1.296 3.645-.06 5.081 3.157 6.29 10.277 3.864 20.555 7.757 31.364 9.824 17.468 3.34 34.942 4.236 52.34-.718 3.975-1.132 6.942-2.784 7.37-7.45.248-2.693 2.945-5.618.647-7.965-2.308-2.357-5.302.21-8.788.79m8.37-218.46c-2.025.107-2.814 1.661-3.481 3.174-11.813 26.793-17.854 54.343-10.916 83.595.354 1.493.493 3.072 2.14 3.67 4.767 1.732 9.565 3.374 16.024 5.638-11.727-32.434-7.148-63.016 2.089-93.696-1.877-.846-3.517-1.585-5.856-2.38m-4.66 311.1c.95 3.583 3.069 4.31 6.357 2.813 5.896-2.684 11.93-5.073 17.766-7.88 19.683-9.464 36.662-22.168 48.368-41.056 5.012-8.087 4.008-13.742-3.626-20.345-1.537.898-2.024 2.54-2.835 3.968-5.77 10.16-12.357 19.681-20.817 27.866-12.317 11.917-26.381 21.217-41.732 28.694-2.14 1.041-5.05 1.718-3.482 5.94M586.8 425.099c17.58-5.636 35.53-6.618 53.785-4.55 10.973 1.242 21.568 4.012 32.053 7.278 3.106.967 4.661-.02 5.671-2.89 1-2.845-.135-4.475-2.682-5.465-4.034-1.567-8.054-3.173-12.125-4.637-22.842-8.215-46.064-11.699-70.043-5.494-7.121 1.843-10.778 6.426-11.033 13.745-.105 2.99 1.686 2.712 4.374 2.013m73.794 105.864c4.428 6.277 8.06 13.029 11.707 19.767 1.394 2.576 3.037 3.758 6.032 2.321 2.904-1.392 2.672-3.47 1.716-5.835-4.062-10.05-8.42-19.986-14.322-29.1-9.619-14.856-21.267-27.748-37.029-36.394-6.661-3.654-11.956-2.3-17.428 4.892 19.868 10.626 36.17 25.249 49.324 44.349m-234.456-46.645c-12.212-6.793-22.857-15.467-31.886-26.169-9.068-10.748-16.715-22.425-23.327-34.803-1.397-2.615-3.081-3.696-6.033-2.134-2.899 1.533-2.384 3.466-1.311 5.836 3.09 6.826 5.852 13.809 9.138 20.537 8.643 17.7 20.297 32.833 37.623 42.977 7.129 4.174 9.722 4.024 16.293-.804 2.435-1.79 2.451-3.327-.497-5.44m90.578-91.592c1.192 1.507 1.542 3.754 4.135 4.47.807-1.11 1.792-2.22 2.502-3.483 6.54-11.63 15.564-21.168 25.386-29.992 11.097-9.969 23.607-17.885 36.872-24.628 2.767-1.406 4.216-3.087 2.667-6.296-1.505-3.118-3.767-2.726-6.278-1.61-4.412 1.96-8.878 3.81-13.223 5.91-20.858 10.082-39.242 23.114-52.166 42.94-2.834 4.347-3.647 7.97.105 12.689m71.895 5.777c7.417 2.06 12.958-1.181 13.73-8.346.885-8.226.467-16.366-2.384-24.227-4.304.24-6.899 2.715-9.734 4.654-1.684 1.152-3.1 2.544-2.625 4.924 1.475 7.379 1.45 14.815 1.013 22.995M438.514 594.024c1.014 5.097.425 10.56 3.25 15.558 3.367-1.068 5.687-3.299 8.403-4.807 2.834-1.573 3.78-3.543 3.04-6.956-1.014-4.685-1.442-9.507-1.41-14.365.061-8.956-1.265-9.702-9.717-6.76-3.942 1.372-3.169 4.735-3.555 7.452-.417 2.933-.078 5.975-.01 9.878m171.929-38.182c.613 2.408 1.443 4.787 1.785 7.233.436 3.117 2.398 4.205 5.1 4.444 8.171.723 16.236-.08 24.205-1.93 1.321-.307 2.531-.802 2.473-2.58-.14-4.28-6.972-10.325-11.284-9.572-6.115 1.067-12.227.877-18.37.702-1.324-.038-3.051-1.006-3.91 1.703m-71.157 46.441c-1.103-.945-1.81-2.424-3.457-2.62-7.908 6.587-8.194 10.01-1.483 16.916 4.301 4.427 9.146 8.187 14.27 11.587 1.166.774 2.484 1.934 4.045.67 2.588-2.098 2.505-12.044-.3-14.091-4.73-3.454-8.8-7.556-13.075-12.462M423.38 419.68c8.763.09 9.754-1.416 6.516-9.693-.521-1.333-1.085-2.421-2.631-2.636-9.614-1.336-19.098-1.13-28.402 1.94-.026 3.546 2.143 5.594 3.563 7.96 1.122 1.869 2.393 3.846 5.066 3.196 4.938-1.2 9.948-.569 15.888-.767m-25.021 75.036c-9.56 5.423-16.187 13.382-21.091 23.144 9.623 4.424 12.154 3.82 17.715-3.439a71.143 71.143 0 015.512-6.387c7.335-7.525 7.363-7.498-2.136-13.318m259.788-31.1c1.05-1.484 2.194-2.912 3.12-4.47.718-1.205.754-2.513-.374-3.636-2.123-2.115-10.9-2.066-12.723.323-3.637 4.766-7.91 8.905-12.17 13.075-.958.94-1.899 1.934-1.64 3.428.569 3.29 8.694 6.477 11.421 4.421 4.67-3.52 8.414-7.943 12.366-13.141m-157.06-109.192c-2.479-1.957-4.926-3.955-7.45-5.851-1.055-.794-2.231-1.53-3.598-.409-1.763 1.446-3.278 10.192-1.661 11.697 5.785 5.386 11.761 10.568 17.519 15.696 2.249-.984 2.894-2.847 4.144-4.138 2.882-2.975 2.83-5.531-.406-8.346-2.87-2.499-5.351-5.446-8.548-8.649z" />
  <g fill="#92400e">
    <path
      d="M502.013 853.7c-4.192 1.62-5.688-.361-6.433-3.913-3.585-17.09-7.266-34.161-10.924-51.236-.202-.942-.5-1.863-1.098-4.067-2.459 8.136-2.779 15.381-4.114 22.415-1.238 6.524-1.998 13.14-2.938 19.72-.62 4.34-.657 8.407 4.537 10.245 1.718.608 2.728 1.907 2.23 3.91-.579 2.329-2.4 2.596-4.31 2.385-5.449-.6-10.887-1.293-16.327-1.971-1.86-.232-3.101-1.234-3.32-3.156-.208-1.81.98-2.98 2.47-3.292 5.393-1.133 6.169-5.412 6.92-9.725 3.16-18.168 6.233-36.351 9.481-54.503.593-3.313-.366-5.556-3.223-7.033-2.139-1.106-3.755-2.56-2.695-5.082 1.026-2.443 3.362-1.653 5.276-1.399 13.021 1.727 12.97 1.756 15.903 14.72 2.97 13.13 6.042 26.237 9.096 39.349.29 1.244.764 2.445 1.221 3.882 2.016-1.484 2.355-3.525 2.928-5.323 4.855-15.213 10.914-30.022 15.232-45.415.448-1.597.882-3.362 2.846-3.756 4.77-.959 9.599-.732 14.413-.475 1.316.07 2.021 1.042 2.261 2.31.336 1.777-.59 3.054-2.053 3.589-4.623 1.692-4.698 5.154-4.467 9.316.95 17.113 1.644 34.24 2.376 51.365.234 5.47-.457 11.281 6.592 13.429 1.226.373 1.582 1.635 1.393 2.91-.232 1.572-1.254 2.343-2.754 2.35-7.493.041-14.987.047-22.48.027-1.708-.005-2.9-.85-3.08-2.625-.18-1.768.943-2.893 2.443-3.356 3.449-1.065 5.393-3.098 5.244-6.873-.598-15.12-1.168-30.243-1.8-46.706-2.753 4.32-3.461 8.058-4.637 11.57-4.7 14.043-9.302 28.117-13.993 42.163-.466 1.397-1.287 2.676-2.216 4.25zM309.605 733.833c-2.095-.246-2.92 1.183-3.87 2.262-4.503 5.126-8.977 10.279-13.378 15.493-2.107 2.495-3.73 5.11-1.523 8.539 1.102 1.711.828 3.576-1.043 4.803-1.826 1.198-3.145-.02-4.398-1.14-4.466-3.993-8.932-7.987-13.35-12.032-1.503-1.376-2.978-3.01-1.8-5.197 1.22-2.268 3.33-1.103 4.9-.558 4.002 1.392 5.92-1.499 7.923-3.762 10.148-11.465 20.157-23.053 30.228-34.585 1.97-2.256 4.04-4.426 6-6.69 2.732-3.154 5.812-6.194 2.604-10.881-.758-1.11-.435-2.588.859-3.542 1.485-1.095 2.936-.774 4.055.403 7.227 7.603 16.124 13.5 22.708 21.703 6.016 7.496 6.058 15.27.95 23.677-4.74 7.8-12.938 11.799-21.532 10.497-1.452-.22-2.895-.845-4.616.048.243 10.386-4.991 19.713-6.471 29.892-.507 3.482-1.125 6.86.173 10.314.59 1.571.802 3.303-.876 4.53-1.78 1.302-3.107.1-4.467-.858-.136-.096-.257-.212-.392-.31-10.593-7.605-10.808-8.186-6.95-20.573 2.423-7.779 4.868-15.552 7.404-23.295 1.195-3.652.48-6.523-3.138-8.738m18.157-.348c5.572-1.724 9.346-5.602 12.278-10.41 3.966-6.504 2.881-12.325-2.815-17.34-2.248-1.98-3.876-2.002-5.79.3-4.255 5.113-8.613 10.14-12.927 15.205-5.493 6.447-4.653 9.395 3.568 11.944 1.536.476 3.27.315 5.686.3zM228.22 698.747c-2.55-3.735-4.919-7.16-7.191-10.65-.896-1.374-2.01-2.913-.684-4.566 1.33-1.657 3.06-1.14 4.5-.188 3.657 2.418 6.596.91 9.487-1.448 13.565-11.065 28.27-20.59 42.185-31.186 3.303-2.516 6.425-4.916 4.617-9.852-.589-1.61.313-2.89 1.924-3.566 1.55-.651 2.667.115 3.403 1.29 5.836 9.313 13.56 17.366 18.416 27.317 3.954 8.104 2.582 16.113-.568 24.182-6.242 15.992-26.213 30.7-42.734 31.141-9.77.262-17.9-3.323-24.204-10.779-3.117-3.686-5.964-7.6-9.152-11.695m28.095 11.059c18.535-3.496 31.41-14.445 39.811-30.866 3.208-6.268 1.882-12.548-1.833-18.494-2.292-3.669-4.344-4.109-7.887-1.393-12.814 9.821-25.833 19.376-38.76 29.05-2.798 2.092-5.551 4.244-8.3 6.4-2.22 1.743-2.31 3.768-.944 6.16 3.789 6.627 9.57 9.433 17.913 9.143zM761.945 757.617c-2.427 4.495-5.398 8.05-9.114 10.966-11.723 9.199-23.817 8.405-33.582-2.864-9.699-11.193-18.915-22.807-28.23-34.328-2.925-3.616-5.534-7.363-11.062-4.785-1.016.474-1.981.043-2.595-.892-.814-1.24-.915-2.665.104-3.709 5.237-5.366 11.226-9.866 17.08-14.515.874-.694 1.884-.432 2.676.413 1.16 1.234 1.591 2.853.658 4.122-2.86 3.894-.38 6.463 1.895 9.198 8.94 10.75 17.866 21.514 26.795 32.274 2.026 2.442 4.148 4.779 6.875 6.477 6.436 4.008 12.423 3.306 17.599-2.07 5.863-6.09 6.802-12.69 2.082-18.863-10.327-13.503-22.13-25.745-33.394-38.447-2.296-2.59-4.808-2.565-7.64-1.198-1.874.904-3.565.841-4.748-1.132-1.083-1.807-.173-3.132 1.105-4.385 3.446-3.38 6.841-6.815 10.317-10.166 1.31-1.263 2.753-2.703 4.793-1.434 2.117 1.318 1.398 3.133.53 4.823-1.96 3.81-.272 6.692 2.253 9.425 8.585 9.292 17.183 18.575 25.712 27.92 2.464 2.699 4.852 5.49 7.034 8.42 5.606 7.525 7.029 15.648 2.857 24.75zM369.166 774.94c-6.15-3.355-6.098-3.314-9.307 2.502-3.218 5.832-6.486 11.642-9.934 17.34-1.738 2.872-1.443 4.875 1.475 6.588 2.152 1.263 4.131 2.825 6.3 4.057 7.484 4.254 9.336 4.03 16.07-1.477 1.146-.937 2.395-1.845 3.746-2.409 1.304-.544 2.64.044 3.645 1.023 1.15 1.119 1.02 2.454.157 3.63-3.249 4.431-6.566 8.812-9.848 13.218-1.413 1.898-2.964 1.61-4.77.523-12.274-7.38-24.33-15.136-37.168-21.543-1.744-.87-3.139-2.053-2.486-4.299.585-2.011 2.283-2.405 3.995-2.163 3.582.506 5.621-1.43 7.254-4.168 9.814-16.453 19.616-32.914 29.438-49.362 1.805-3.023 2.908-5.953.32-9.198-1.077-1.353-1.383-3.115.12-4.538 1.577-1.492 3.177-.596 4.552.318 10.836 7.205 22.096 13.672 33.67 19.606 1.7.871 3.22 1.926 2.035 4.28-2.095 4.163-4.08 8.381-6.227 12.516-.654 1.26-1.364 2.947-3.32 2.305-1.905-.625-2.627-2.414-2.076-4.041 4.528-13.364-6.773-15.075-14.698-20.2-5.184 7.794-9.653 15.696-13.83 23.774-.766 1.48.113 2.454 1.195 3.41 4.37 3.86 7.828 3.933 12.378.214 1.571-1.284 3.202-2.695 5.284-.951 1.88 1.574.97 3.315.045 4.936-2.971 5.209-5.972 10.4-8.996 15.578-.935 1.6-1.94 3.364-4.25 2.48-2.248-.859-2.021-2.669-1.559-4.605.858-3.593.942-7.015-3.21-9.345zM632.9 822.085c-7.17-11.682-3.84-10.629-16.865-6.806-1.755.515-3.475 1.153-5.242 1.62-2.691.71-3.756 2.407-3.603 5.144.147 2.656.197 5.329.087 7.986-.187 4.493.523 8.046 6.266 7.882 1.89-.054 3.038 1.362 3.225 3.21.182 1.792-1.073 2.707-2.601 3.18-5.236 1.619-10.466 3.267-15.744 4.737-1.738.485-3.72.736-4.81-1.393-.98-1.912.156-3.176 1.497-4.269 3.498-2.85 3.815-6.715 3.795-10.84-.11-22.967-.116-45.934-.205-68.901-.012-2.982.11-5.588 3.685-6.688 3.34-1.027 4.768.776 6.37 3.183 12.816 19.249 25.782 38.398 38.543 57.683 2.196 3.318 4.805 5.464 8.74 5.801 2.01.172 3.711.64 3.892 2.967.167 2.15-1.613 2.748-3.17 3.295a1914.19 1914.19 0 01-19.799 6.817c-1.46.495-2.992.725-4.138-.665-1.186-1.44-.698-3.198.383-4.08 4.114-3.36 1.807-6.399-.306-9.863m-22.13-12.918c2.379-.733 4.731-1.574 7.144-2.173 3.568-.885 4.184-2.724 2.26-5.752-2.763-4.345-5.405-8.766-8.166-13.113-1.526-2.404-2.725-5.108-5.618-7.497 0 9.372-.017 17.794.01 26.216.01 2.463 1.38 3.184 4.37 2.319zM395.895 832.185c-3.869-1.203-7.373-2.25-10.862-3.343-1.914-.6-3.243-1.777-3.131-3.952.121-2.377 1.891-3.063 3.819-3.074 3.968-.023 6.426-2.25 8.524-5.249 13.358-19.087 26.753-38.147 40.09-57.249 1.647-2.358 2.83-4.883 6.61-3.526 3.868 1.388 3.988 4.008 3.846 7.507-.978 24.1-2.48 48.182-2.61 72.313-.014 2.7.722 4.828 3.02 6.429 1.6 1.116 2.635 2.723 1.57 4.72-1.117 2.094-3.051 1.676-4.838 1.099-6.328-2.042-12.636-4.146-18.954-6.218-1.863-.611-3.438-1.487-3.15-3.815.249-2.011 1.797-2.912 3.505-2.937 3.562-.051 4.23-2.117 4.654-5.127 1.942-13.786 1.809-14.127-10.993-18.274-7.914-2.564-7.93-2.573-12.445 4.646a103.977 103.977 0 00-3.494 6.041c-.74 1.382-.96 2.817.156 4.201 1.496 1.854 4.377 3.575 2.283 6.314-2.219 2.902-4.816.201-7.6-.506m35.17-50.03v-5.37c-6.185 8.676-12.23 16.463-16.815 25.734 5.15 2.362 9.766 4.201 15.077 4.827 1.102-8.497 1.5-16.414 1.738-25.191zM695.915 808.991c-8.249 4.412-16.154 8.693-24.141 12.814-4.512 2.328-6.205 1.337-6.954-3.786-.167-1.146-.119-2.327-.13-3.493-.229-22.649-.457-45.298-.67-67.947-.066-6.961-1.037-7.564-7.05-4.265-1.167.64-2.308 1.329-3.479 1.965-8.717 4.732-9.29 5.747-7.799 15.376.358 2.31.762 4.533-2.073 5.262-2.671.687-3.375-1.672-4.08-3.466-1.64-4.18-3.117-8.425-4.618-12.66-.936-2.643-.208-4.474 2.594-5.456 11.226-3.934 21.343-10.095 31.656-15.862 5.035-2.816 6.767-1.906 7.256 4.043 1.598 19.455.527 38.96.983 58.436.148 6.29.561 12.576.895 19.77 8.252-3.508 15.766-6.852 20.688-13.875 2.107-3.007.828-6.807.429-10.258-.171-1.48-.584-2.93-.788-4.409-.249-1.798.135-3.39 2.083-4.026 2.048-.669 3.255.698 3.934 2.227 2.428 5.472 4.659 11.032 7.012 16.538 1.162 2.72.16 4.329-2.324 5.624-4.428 2.31-8.75 4.823-13.424 7.448zM762.31 683.665c9.817 7.739 19.424 15.17 28.844 22.833 3.088 2.512 5.187 2.225 7.28-.993 1.176-1.809 2.61-3.447 3.868-5.205 4.778-6.687 4.748-9.729.48-16.83-1.299-2.16-4.776-4.631-1.462-7.264 3.125-2.484 5.097 1.137 7.016 2.836 11.026 9.765 11.028 9.853 2.686 21.595-6.26 8.81-12.638 17.539-19.033 26.252-1.232 1.677-2.498 3.985-5.164 2.766-2.339-1.07-1.877-3.178-1.284-5.208 1.108-3.795-1.454-5.945-3.895-7.947-9.13-7.491-18.338-14.888-27.526-22.31-4.917-3.972-9.827-7.952-14.788-11.868-2.825-2.23-5.735-4.226-9.341-1.284-1.111.906-2.43 1.236-3.586.025-1.178-1.234-1.393-2.782-.367-4.1a985.733 985.733 0 0113.356-16.764c.857-1.053 2.13-1.777 3.534-.912 1.423.877 2.156 2.368 1.463 3.871-2.157 4.679.763 7.047 3.916 9.478 4.611 3.556 9.151 7.203 14.004 11.029z" />
  </g>
</svg>